<svg width="35" height="30" viewBox="0 0 35 30" fill="none" xmlns="http://www.w3.org/2000/svg">
<path d="M34.5 13.5C34.5 20.5668 27.0172 26.5 17.5 26.5C7.98275 26.5 0.5 20.5668 0.5 13.5C0.5 6.4332 7.98275 0.5 17.5 0.5C27.0172 0.5 34.5 6.4332 34.5 13.5Z" fill="#E9C7BF" stroke="black"/>
<line y1="-0.5" x2="2.54189" y2="-0.5" transform="matrix(0.618239 -0.78599 0.631534 0.775349 6 17.655)" stroke="#F37F83"/>
<line y1="-0.5" x2="5.71926" y2="-0.5" transform="matrix(0.618239 -0.78599 0.631534 0.775349 6.39635 20.1524)" stroke="#F37F83"/>
<line y1="-0.5" x2="4.44832" y2="-0.5" transform="matrix(0.618239 -0.78599 0.631534 0.775349 6 19.1535)" stroke="#F37F83"/>
<line y1="-0.5" x2="5.71926" y2="-0.5" transform="matrix(0.618239 -0.78599 0.631534 0.775349 7.18906 20.6476)" stroke="#F37F83"/>
<line y1="-0.5" x2="5.71926" y2="-0.5" transform="matrix(0.618239 -0.78599 0.631534 0.775349 7.98174 21.1428)" stroke="#F37F83"/>
<line y1="-0.5" x2="4.44832" y2="-0.5" transform="matrix(0.618239 -0.78599 0.631534 0.775349 9.17079 21.1342)" stroke="#F37F83"/>
<line y1="-0.5" x2="3.16266" y2="-0.5" transform="matrix(0.622213 -0.782848 0.627577 0.778555 10.3598 21.1041)" stroke="#F37F83"/>
<line y1="-0.5" x2="2.54189" y2="-0.5" transform="matrix(0.618239 -0.78599 0.631534 0.775349 23.1111 17.655)" stroke="#F37F83"/>
<line y1="-0.5" x2="5.71926" y2="-0.5" transform="matrix(0.618239 -0.78599 0.631534 0.775349 23.5075 20.1524)" stroke="#F37F83"/>
<line y1="-0.5" x2="4.44832" y2="-0.5" transform="matrix(0.618239 -0.78599 0.631534 0.775349 23.1111 19.1535)" stroke="#F37F83"/>
<line y1="-0.5" x2="5.71926" y2="-0.5" transform="matrix(0.618239 -0.78599 0.631534 0.775349 24.3002 20.6476)" stroke="#F37F83"/>
<line y1="-0.5" x2="5.71926" y2="-0.5" transform="matrix(0.618239 -0.78599 0.631534 0.775349 25.0928 21.1428)" stroke="#F37F83"/>
<line y1="-0.5" x2="4.44832" y2="-0.5" transform="matrix(0.618239 -0.78599 0.631534 0.775349 26.2819 21.1342)" stroke="#F37F83"/>
<line y1="-0.5" x2="3.16266" y2="-0.5" transform="matrix(0.622213 -0.782848 0.627577 0.778555 27.4709 21.1041)" stroke="#F37F83"/>
<path d="M7.55556 12.4714C7.55556 14.3886 9.12256 15.9429 11.0556 15.9429C12.9886 15.9429 14.5556 14.9172 14.5556 13C12.0278 11.1622 11.8889 10.6336 9.55556 9C8.19445 9.81681 7.75 10.6336 7.55556 12.4714Z" fill="black"/>
<g filter="url(#filter0_d_3_596)">
<rect x="13.5" y="16.1571" width="8.33333" height="4.4" rx="2.2" stroke="black" shape-rendering="crispEdges"/>
</g>
<line x1="13.7778" y1="18.2429" x2="21.5556" y2="18.2429" stroke="black"/>
<line x1="15.0556" y1="16.4286" x2="15.0556" y2="20.2857" stroke="black"/>
<line x1="16.6111" y1="16.4286" x2="16.6111" y2="20.2857" stroke="black"/>
<line x1="18.9444" y1="16.4286" x2="18.9444" y2="20.2857" stroke="black"/>
<line x1="20.5" y1="16.4286" x2="20.5" y2="20.2857" stroke="black"/>
<path d="M14.5556 9L9.55556 5" stroke="black" stroke-width="2"/>
<path d="M24.5555 5L19.5623 9.00845" stroke="black" stroke-width="2"/>
<path d="M27.3333 12.4714C27.3333 14.3886 25.5922 15.9429 23.4444 15.9429C21.2967 15.9429 19.5556 14.9172 19.5556 13C22.3642 11.1622 22.963 10.6336 25.5556 9C27.0679 9.81681 27.1173 10.6336 27.3333 12.4714Z" fill="black"/>
<ellipse cx="22.7222" cy="13.7286" rx="1.16667" ry="1.15714" fill="#D9D9D9"/>
<ellipse cx="11.8333" cy="13.7286" rx="1.16667" ry="1.15714" fill="#D9D9D9"/>
<ellipse cx="9.5" cy="14.5" rx="0.388889" ry="0.385714" fill="#D9D9D9"/>
<ellipse cx="25.0556" cy="14.5" rx="0.388889" ry="0.385714" fill="#D9D9D9"/>
<defs>
<filter id="filter0_d_3_596" x="9" y="15.6571" width="17.3333" height="13.4" filterUnits="userSpaceOnUse" color-interpolation-filters="sRGB">
<feFlood flood-opacity="0" result="BackgroundImageFix"/>
<feColorMatrix in="SourceAlpha" type="matrix" values="0 0 0 0 0 0 0 0 0 0 0 0 0 0 0 0 0 0 127 0" result="hardAlpha"/>
<feOffset dy="4"/>
<feGaussianBlur stdDeviation="2"/>
<feComposite in2="hardAlpha" operator="out"/>
<feColorMatrix type="matrix" values="0 0 0 0 0 0 0 0 0 0 0 0 0 0 0 0 0 0 0.25 0"/>
<feBlend mode="normal" in2="BackgroundImageFix" result="effect1_dropShadow_3_596"/>
<feBlend mode="normal" in="SourceGraphic" in2="effect1_dropShadow_3_596" result="shape"/>
</filter>
</defs>
</svg>
