<svg width="30" height="30" viewBox="0 0 30 30" fill="none" xmlns="http://www.w3.org/2000/svg">
<g clip-path="url(#clip0_3_1334)">
<path d="M26.4844 3.12528e-06H3.51562C2.58322 3.12528e-06 1.68901 0.370398 1.0297 1.02971C0.370395 1.68901 0 2.58323 0 3.51563L0 18.6492C0 19.5816 0.370395 20.4758 1.0297 21.1351C1.68901 21.7945 2.58322 22.1648 3.51562 22.1648H8.97187C9.03403 22.1648 9.09365 22.1895 9.1376 22.2335C9.18156 22.2774 9.20625 22.3371 9.20625 22.3992V28.3594C9.20623 28.6839 9.30243 29.0011 9.48271 29.2709C9.66298 29.5407 9.91922 29.751 10.219 29.8752C10.5188 29.9994 10.8487 30.0319 11.167 29.9686C11.4852 29.9053 11.7776 29.749 12.007 29.5195L19.2914 22.2352C19.3133 22.2134 19.3393 22.1963 19.3678 22.1846C19.3964 22.1729 19.427 22.167 19.4578 22.1672H26.4891C27.4215 22.1672 28.3157 21.7968 28.975 21.1375C29.6343 20.4782 30.0047 19.584 30.0047 18.6516V3.51563C30.0047 3.05356 29.9136 2.59601 29.7366 2.16917C29.5597 1.74233 29.3003 1.35456 28.9733 1.02805C28.6464 0.70153 28.2583 0.442668 27.8312 0.266268C27.4041 0.0898667 26.9464 -0.000612972 26.4844 3.12528e-06ZM28.5937 18.6492C28.5937 19.2087 28.3715 19.7452 27.9759 20.1408C27.5803 20.5364 27.0438 20.7586 26.4844 20.7586H19.4531C19.0197 20.7554 18.6026 20.924 18.293 21.2273L11.0156 28.5234C10.9828 28.5565 10.941 28.579 10.8953 28.5882C10.8497 28.5974 10.8023 28.5927 10.7593 28.5749C10.7163 28.557 10.6796 28.5268 10.6539 28.488C10.6282 28.4492 10.6146 28.4036 10.6148 28.357V22.3992C10.6148 21.9641 10.442 21.5468 10.1343 21.2391C9.82664 20.9314 9.40934 20.7586 8.97422 20.7586H3.51562C2.95618 20.7586 2.41966 20.5364 2.02407 20.1408C1.62849 19.7452 1.40625 19.2087 1.40625 18.6492V3.51563C1.40625 2.95619 1.62849 2.41966 2.02407 2.02407C2.41966 1.62849 2.95618 1.40625 3.51562 1.40625H26.4844C27.0438 1.40625 27.5803 1.62849 27.9759 2.02407C28.3715 2.41966 28.5937 2.95619 28.5937 3.51563V18.6492Z" fill="black"/>
<rect x="2" y="2" width="26" height="18" rx="2" fill="#D9D9D9"/>
<line x1="3" y1="5.5" x2="27" y2="5.5" stroke="black"/>
<line x1="3" y1="10.5" x2="27" y2="10.5" stroke="black"/>
<line x1="3" y1="15.5" x2="27" y2="15.5" stroke="black"/>
</g>
<defs>
<clipPath id="clip0_3_1334">
<rect width="30" height="30" fill="white"/>
</clipPath>
</defs>
</svg>
