<svg width="35" height="27" viewBox="0 0 35 27" fill="none" xmlns="http://www.w3.org/2000/svg">
<path d="M34.5 13.5C34.5 20.5668 27.0172 26.5 17.5 26.5C7.98276 26.5 0.5 20.5668 0.5 13.5C0.5 6.4332 7.98276 0.5 17.5 0.5C27.0172 0.5 34.5 6.4332 34.5 13.5Z" fill="#E8E9BF" stroke="black"/>
<line y1="-0.5" x2="2.54189" y2="-0.5" transform="matrix(0.618239 -0.78599 0.631534 0.775349 5.44444 14.9767)" stroke="#F1D7D8"/>
<line y1="-0.5" x2="5.71926" y2="-0.5" transform="matrix(0.618239 -0.78599 0.631534 0.775349 5.84079 17.4741)" stroke="#F1D7D8"/>
<line y1="-0.5" x2="4.44832" y2="-0.5" transform="matrix(0.618239 -0.78599 0.631534 0.775349 5.44444 16.4751)" stroke="#F1D7D8"/>
<line y1="-0.5" x2="5.71926" y2="-0.5" transform="matrix(0.618239 -0.78599 0.631534 0.775349 6.6335 17.9692)" stroke="#F1D7D8"/>
<line y1="-0.5" x2="5.71926" y2="-0.5" transform="matrix(0.618239 -0.78599 0.631534 0.775349 7.42619 18.4644)" stroke="#F1D7D8"/>
<line y1="-0.5" x2="4.44832" y2="-0.5" transform="matrix(0.618239 -0.78599 0.631534 0.775349 8.61523 18.4558)" stroke="#F1D7D8"/>
<line y1="-0.5" x2="3.16266" y2="-0.5" transform="matrix(0.622213 -0.782848 0.627577 0.778555 9.80428 18.4257)" stroke="#F1D7D8"/>
<line y1="-0.5" x2="2.54189" y2="-0.5" transform="matrix(0.618239 -0.78599 0.631534 0.775349 22.4501 14.9767)" stroke="#F1D7D8"/>
<line y1="-0.5" x2="5.71926" y2="-0.5" transform="matrix(0.618239 -0.78599 0.631534 0.775349 22.8464 17.4741)" stroke="#F1D7D8"/>
<line y1="-0.5" x2="4.44832" y2="-0.5" transform="matrix(0.618239 -0.78599 0.631534 0.775349 22.4501 16.4751)" stroke="#F1D7D8"/>
<line y1="-0.5" x2="5.71926" y2="-0.5" transform="matrix(0.618239 -0.78599 0.631534 0.775349 23.6391 17.9692)" stroke="#F1D7D8"/>
<line y1="-0.5" x2="5.71926" y2="-0.5" transform="matrix(0.618239 -0.78599 0.631534 0.775349 24.4318 18.4644)" stroke="#F1D7D8"/>
<line y1="-0.5" x2="4.44832" y2="-0.5" transform="matrix(0.618239 -0.78599 0.631534 0.775349 25.6208 18.4558)" stroke="#F1D7D8"/>
<line y1="-0.5" x2="3.16266" y2="-0.5" transform="matrix(0.622213 -0.782848 0.627577 0.778555 26.8099 18.4257)" stroke="#F1D7D8"/>
<path d="M8.2128 11.9884V10.1398L8.82799 9.08339L9.85331 8.29111L11.0837 8.02702L12.3141 8.29111L13.1343 9.08339L13.7495 10.1398V11.9884" stroke="black" stroke-width="2"/>
<path d="M20.4727 11.9884V10.1398L21.0879 9.08339L22.1132 8.29111L23.3436 8.02702L24.574 8.29111L25.3942 9.08339L26.0094 10.1398V11.9884" stroke="black" stroke-width="2"/>
<path d="M18.3908 19.6529C18.3908 20.7265 17.7169 21.3919 17.1111 21.3919C16.5054 21.3919 15.8315 20.7265 15.8315 19.6529C15.8315 19.0671 15.8841 18.5014 16.107 17.8913C16.2903 17.3895 16.5962 16.8379 17.1111 16.2131C17.6261 16.8379 17.932 17.3895 18.1153 17.8913C18.3381 18.5014 18.3908 19.0671 18.3908 19.6529Z" fill="#F9707A" stroke="#B8535B"/>
<path d="M13.7495 15.4546V16.445L14.7382 17.1877H15.9247L16.5179 16.445L17.1111 15.207L17.7043 16.445L18.4953 17.1877H19.6817L20.4727 16.445V15.4546" stroke="black"/>
</svg>
