<svg width="36" height="27" viewBox="0 0 36 27" fill="none" xmlns="http://www.w3.org/2000/svg">
<path d="M34.5526 13.5C34.5526 20.5662 27.0589 26.5 17.5263 26.5C7.99377 26.5 0.5 20.5662 0.5 13.5C0.5 6.43379 7.99377 0.5 17.5263 0.5C27.0589 0.5 34.5526 6.43379 34.5526 13.5Z" fill="#E8E9BF" stroke="black"/>
<path d="M9.7627 6.11341L11.4421 8.35263L11.5223 8.45955L11.6452 8.5122L14.2821 9.64234L12.4359 11.4886L12.2591 11.6653L12.2945 11.9128L12.6459 14.3725L9.89623 13.2726L9.71053 13.1983L9.52484 13.2726L6.82921 14.3509L7.35872 11.7033L7.4112 11.4409L7.22198 11.2517L5.61261 9.64234L8.2496 8.5122L8.40134 8.44717L8.48453 8.30457L9.7627 6.11341Z" fill="#FFCE75" stroke="black"/>
<path d="M24.9206 6.11341L26.6 8.35263L26.6802 8.45955L26.803 8.5122L29.44 9.64234L27.5938 11.4886L27.417 11.6653L27.4524 11.9128L27.8038 14.3725L25.0541 13.2726L24.8684 13.1983L24.6827 13.2726L21.9871 14.3509L22.5166 11.7033L22.5691 11.4409L22.3799 11.2517L20.7705 9.64234L23.4075 8.5122L23.5592 8.44717L23.6424 8.30457L24.9206 6.11341Z" fill="#FFCF73" stroke="black"/>
<line y1="-0.5" x2="2.38148" y2="-0.5" transform="matrix(0.740971 -0.671537 0.752502 0.658591 4.73685 16.7572)" stroke="#F1D7D8"/>
<line y1="-0.5" x2="5.35832" y2="-0.5" transform="matrix(0.740971 -0.671537 0.752502 0.658591 5.18188 18.7562)" stroke="#F1D7D8"/>
<line y1="-0.5" x2="4.16758" y2="-0.5" transform="matrix(0.740971 -0.671537 0.752502 0.658591 4.73685 17.9566)" stroke="#F1D7D8"/>
<line y1="-0.5" x2="5.35832" y2="-0.5" transform="matrix(0.740971 -0.671537 0.752502 0.658591 6.07205 19.1526)" stroke="#F1D7D8"/>
<line y1="-0.5" x2="5.35832" y2="-0.5" transform="matrix(0.740971 -0.671537 0.752502 0.658591 6.9621 19.549)" stroke="#F1D7D8"/>
<line y1="-0.5" x2="4.16758" y2="-0.5" transform="matrix(0.740971 -0.671537 0.752502 0.658591 8.29724 19.5421)" stroke="#F1D7D8"/>
<line y1="-0.5" x2="2.96822" y2="-0.5" transform="matrix(0.744439 -0.667691 0.749091 0.662468 9.63246 19.5179)" stroke="#F1D7D8"/>
<line y1="-0.5" x2="2.38148" y2="-0.5" transform="matrix(0.740971 -0.671537 0.752502 0.658591 23.2105 16.7572)" stroke="#F1D7D8"/>
<line y1="-0.5" x2="5.35832" y2="-0.5" transform="matrix(0.740971 -0.671537 0.752502 0.658591 23.6556 18.7562)" stroke="#F1D7D8"/>
<line y1="-0.5" x2="4.16758" y2="-0.5" transform="matrix(0.740971 -0.671537 0.752502 0.658591 23.2105 17.9566)" stroke="#F1D7D8"/>
<line y1="-0.5" x2="5.35832" y2="-0.5" transform="matrix(0.740971 -0.671537 0.752502 0.658591 24.5457 19.1526)" stroke="#F1D7D8"/>
<line y1="-0.5" x2="5.35832" y2="-0.5" transform="matrix(0.740971 -0.671537 0.752502 0.658591 25.4358 19.549)" stroke="#F1D7D8"/>
<line y1="-0.5" x2="4.16758" y2="-0.5" transform="matrix(0.740971 -0.671537 0.752502 0.658591 26.7709 19.5421)" stroke="#F1D7D8"/>
<line y1="-0.5" x2="2.96822" y2="-0.5" transform="matrix(0.744439 -0.667691 0.749091 0.662468 28.1061 19.5179)" stroke="#F1D7D8"/>
<path d="M19.8653 17.8324C19.8363 18.1116 19.607 18.4832 19.1216 18.8204C18.6206 19.1683 17.944 19.4044 17.268 19.4044C16.0535 19.4044 15.2669 18.4191 15.1904 17.6477C15.3991 17.297 15.627 17.0618 15.9268 16.9016C16.2696 16.7185 16.7589 16.6053 17.5263 16.6053C18.3701 16.6053 18.9097 16.7716 19.254 16.998C19.5671 17.2038 19.758 17.4849 19.8653 17.8324Z" stroke="black"/>
<path d="M15.6173 17.0907L18.3216 17.0626L19.3448 17.7079L19.6376 18.4482" stroke="black"/>
</svg>
