<svg width="124" height="18" viewBox="0 0 124 18" fill="none" xmlns="http://www.w3.org/2000/svg">
<path d="M8.448 17.24C5.936 17.24 4.024 16.6 2.712 15.32C1.4 14.04 0.744 12.048 0.744 9.344C0.744 6.48 1.4 4.424 2.712 3.176C4.024 1.928 5.936 1.304 8.448 1.304C10.96 1.304 12.872 1.928 14.184 3.176C15.496 4.424 16.152 6.48 16.152 9.344C16.152 12.048 15.496 14.04 14.184 15.32C12.872 16.6 10.96 17.24 8.448 17.24ZM8.448 13.952C9.744 13.952 10.688 13.584 11.28 12.848C11.888 12.096 12.192 10.928 12.192 9.344C12.192 7.616 11.888 6.4 11.28 5.696C10.688 4.976 9.744 4.616 8.448 4.616C7.136 4.616 6.176 4.976 5.568 5.696C4.976 6.4 4.68 7.616 4.68 9.344C4.68 10.928 4.976 12.096 5.568 12.848C6.176 13.584 7.136 13.952 8.448 13.952ZM22.8024 17.24C21.3944 17.24 20.3544 16.88 19.6824 16.16C19.0264 15.44 18.6984 14.448 18.6984 13.184V8.552H17.1624V5.624H18.6984V3.248L22.5624 2.216V5.624H25.3224L25.1544 8.552H22.5624V12.92C22.5624 13.464 22.6984 13.848 22.9704 14.072C23.2424 14.28 23.6504 14.384 24.1944 14.384C24.6584 14.384 25.1304 14.304 25.6104 14.144V16.76C24.8584 17.08 23.9224 17.24 22.8024 17.24ZM30.651 17.24C29.931 17.24 29.259 17.112 28.635 16.856C28.027 16.6 27.539 16.208 27.171 15.68C26.803 15.136 26.619 14.464 26.619 13.664C26.619 12.496 27.011 11.584 27.795 10.928C28.595 10.256 29.787 9.92 31.371 9.92H34.539V9.656C34.539 9.08 34.347 8.672 33.963 8.432C33.579 8.176 32.859 8.048 31.803 8.048C30.507 8.048 29.235 8.248 27.987 8.648V6.152C28.547 5.928 29.227 5.744 30.027 5.6C30.843 5.456 31.699 5.384 32.595 5.384C34.355 5.384 35.731 5.744 36.723 6.464C37.731 7.184 38.235 8.328 38.235 9.896V17H34.851L34.659 16.04C34.243 16.424 33.707 16.72 33.051 16.928C32.411 17.136 31.611 17.24 30.651 17.24ZM31.875 14.864C32.483 14.864 33.011 14.76 33.459 14.552C33.907 14.344 34.267 14.08 34.539 13.76V12.152H31.803C30.667 12.152 30.099 12.608 30.099 13.52C30.099 13.936 30.243 14.264 30.531 14.504C30.819 14.744 31.267 14.864 31.875 14.864ZM40.5521 17V0.823999H44.4161V9.272L48.1361 5.624H52.5281L47.9681 10.352L52.7921 17H48.6881L45.5441 12.392L44.4161 13.496V17H40.5521ZM57.8001 17.24C56.4561 17.24 55.4081 16.864 54.6561 16.112C53.9041 15.344 53.5281 14.232 53.5281 12.776V5.624H57.3921V12.56C57.3921 13.2 57.5441 13.672 57.8481 13.976C58.1681 14.264 58.6401 14.408 59.2641 14.408C59.7281 14.408 60.1681 14.312 60.5841 14.12C61.0001 13.928 61.3441 13.688 61.6161 13.4V5.624H65.4801V17H61.8801L61.7601 16.04C61.2961 16.392 60.7361 16.68 60.0801 16.904C59.4241 17.128 58.6641 17.24 57.8001 17.24ZM75.0551 17.24C74.2871 17.24 73.6151 17.144 73.0391 16.952C72.4631 16.744 71.9431 16.44 71.4791 16.04L71.2871 17H67.9271V0.823999H71.7911V6.152C72.2231 5.896 72.7111 5.704 73.2551 5.576C73.7991 5.448 74.3591 5.384 74.9351 5.384C76.5991 5.384 77.9111 5.848 78.8711 6.776C79.8311 7.688 80.3111 9.168 80.3111 11.216C80.3111 13.264 79.8391 14.784 78.8951 15.776C77.9511 16.752 76.6711 17.24 75.0551 17.24ZM73.9511 14.432C74.8151 14.432 75.4311 14.176 75.7991 13.664C76.1831 13.136 76.3751 12.328 76.3751 11.24C76.3751 10.12 76.1751 9.336 75.7751 8.888C75.3911 8.44 74.7831 8.216 73.9511 8.216C73.0391 8.216 72.3191 8.456 71.7911 8.936V13.568C72.3671 14.144 73.0871 14.432 73.9511 14.432ZM88.1989 17.24C86.0069 17.24 84.3909 16.736 83.3509 15.728C82.3109 14.704 81.7909 13.232 81.7909 11.312C81.7909 9.408 82.3109 7.944 83.3509 6.92C84.4069 5.896 86.0229 5.384 88.1989 5.384C90.3909 5.384 92.0069 5.896 93.0469 6.92C94.1029 7.944 94.6309 9.408 94.6309 11.312C94.6309 13.232 94.1109 14.704 93.0709 15.728C92.0309 16.736 90.4069 17.24 88.1989 17.24ZM88.1989 14.216C89.0949 14.216 89.7349 13.992 90.1189 13.544C90.5029 13.096 90.6949 12.352 90.6949 11.312C90.6949 10.272 90.5029 9.528 90.1189 9.08C89.7349 8.632 89.0949 8.408 88.1989 8.408C87.3189 8.408 86.6869 8.632 86.3029 9.08C85.9189 9.528 85.7269 10.272 85.7269 11.312C85.7269 12.352 85.9189 13.096 86.3029 13.544C86.6869 13.992 87.3189 14.216 88.1989 14.216ZM102.519 17.24C100.327 17.24 98.7112 16.736 97.6712 15.728C96.6312 14.704 96.1112 13.232 96.1112 11.312C96.1112 9.408 96.6312 7.944 97.6712 6.92C98.7272 5.896 100.343 5.384 102.519 5.384C104.711 5.384 106.327 5.896 107.367 6.92C108.423 7.944 108.951 9.408 108.951 11.312C108.951 13.232 108.431 14.704 107.391 15.728C106.351 16.736 104.727 17.24 102.519 17.24ZM102.519 14.216C103.415 14.216 104.055 13.992 104.439 13.544C104.823 13.096 105.015 12.352 105.015 11.312C105.015 10.272 104.823 9.528 104.439 9.08C104.055 8.632 103.415 8.408 102.519 8.408C101.639 8.408 101.007 8.632 100.623 9.08C100.239 9.528 100.047 10.272 100.047 11.312C100.047 12.352 100.239 13.096 100.623 13.544C101.007 13.992 101.639 14.216 102.519 14.216ZM110.912 17V0.823999H114.776V9.272L118.496 5.624H122.888L118.328 10.352L123.152 17H119.048L115.904 12.392L114.776 13.496V17H110.912Z" fill="#541B56"/>
</svg>
