<svg width="95" height="24" viewBox="0 0 95 24" fill="none" xmlns="http://www.w3.org/2000/svg">
<path d="M15.416 1.776H11.984C12.104 2.424 12.152 3.192 12.224 4.224C12.416 8.184 12.464 14.76 12.464 18.072C12.464 18.744 12.248 19.056 11.648 19.056C10.832 19.056 9.536 18.96 8.432 18.792L8.72 21.912C10.088 22.008 11.408 22.056 12.872 22.056C14.696 22.056 15.584 21.168 15.56 19.632C15.512 14.784 15.344 8.184 15.272 4.224C15.248 3.456 15.296 2.544 15.416 1.776ZM1.712 5.784V8.976C2.552 8.928 3.56 8.88 4.448 8.88C5.768 8.88 17.504 8.88 18.44 8.88C19.088 8.88 20.024 8.904 20.768 8.928V5.76C20.192 5.832 19.064 5.952 18.296 5.952C17.12 5.952 6.032 5.952 4.352 5.952C3.536 5.952 2.384 5.856 1.712 5.784ZM0.416 17.208L2.624 19.704C6.752 17.52 11 13.752 12.944 10.848L12.92 8.28H11.36C9.632 11.112 5.432 14.808 0.416 17.208ZM33.272 9.768L31.136 11.952C33.944 13.728 38.504 17.088 40.592 19.056L42.896 16.32C40.664 14.544 36.224 11.472 33.272 9.768ZM44.576 5.688L42.128 4.176C41.576 4.344 40.784 4.464 40.04 4.464H33.2L32.096 7.176H40.208C39.752 9.048 38.264 11.808 36.656 13.704C34.592 16.104 31.736 18.624 26.72 20.184L29.504 22.584C34.088 20.856 37.16 18.168 39.416 15.36C41.576 12.696 43.04 9.624 43.76 7.416C43.976 6.816 44.288 6.144 44.576 5.688ZM36.632 1.992L33.152 0.912C32.936 1.752 32.432 2.856 32.072 3.432C30.848 5.52 28.64 8.808 24.44 11.4L27.008 13.392C30.464 11.016 33.536 7.344 35.144 4.44C35.432 3.936 36.056 2.832 36.632 1.992ZM68.576 6.096L66.104 4.56C65.576 4.752 64.76 4.848 64.016 4.848C63.272 4.848 58.232 4.848 57.176 4.848L56.072 7.584H64.16C63.776 9.36 62.384 12.24 60.752 14.112C58.64 16.488 55.976 18.576 51.08 20.064L53.912 22.584C58.424 20.808 61.304 18.6 63.584 15.816C65.768 13.152 67.136 9.96 67.784 7.8C67.976 7.2 68.312 6.552 68.576 6.096ZM60.752 2.28L57.224 1.128C57.008 1.968 56.504 3.072 56.144 3.648C54.968 5.712 52.856 8.808 48.656 11.376L51.344 13.368C54.8 11.016 57.656 7.632 59.288 4.728C59.552 4.224 60.176 3.12 60.752 2.28ZM72.392 5.28V8.208H93.632V5.28H72.392ZM77.336 16.176V19.104H88.472V16.176H77.336ZM81.44 0.623999V23.16H84.512V0.623999H81.44ZM80.576 6.336C78.872 10.752 75.392 15.072 71.456 17.232C72.104 17.808 73.064 18.912 73.544 19.632C77.744 16.992 81.152 12.408 83.216 7.176L80.576 6.336ZM85.376 6.408L82.76 7.272C84.848 12.384 88.208 16.968 92.432 19.56C92.912 18.744 93.944 17.544 94.664 16.944C90.632 14.856 87.128 10.68 85.376 6.408Z" fill="#541B56"/>
</svg>
